<?xml version="1.0" standalone="no"?>
<!DOCTYPE svg PUBLIC "-//W3C//DTD SVG 20010904//EN"
 "http://www.w3.org/TR/2001/REC-SVG-20010904/DTD/svg10.dtd">
<svg version="1.0" xmlns="http://www.w3.org/2000/svg"
 width="1080.000000pt" height="1080.000000pt" viewBox="0 0 1080.000000 1080.000000"
 preserveAspectRatio="xMidYMid meet">

<g transform="translate(0.000000,1080.000000) scale(0.100000,-0.100000)"
fill="#000000" stroke="none">
<path d="M0 7685 l0 -3115 83 -1 c45 0 195 -4 332 -7 138 -4 289 -6 338 -6 48
1 87 -1 87 -3 0 -2 -6 -10 -13 -17 -10 -10 -54 -12 -192 -8 -331 9 -590 12
-612 7 l-23 -5 0 -1725 0 -1725 163 -1 c89 -1 193 -4 230 -8 l69 -6 -59 -30
c-32 -16 -60 -32 -63 -35 -3 -3 -61 -38 -129 -78 -102 -59 -131 -72 -167 -72
-42 0 -44 -1 -44 -29 l0 -30 43 24 42 24 470 -10 c259 -5 537 -10 619 -12
l150 -2 -42 -27 c-22 -15 -103 -75 -179 -134 l-138 -106 -482 6 -483 7 0 -170
0 -171 263 0 262 0 -34 -30 c-19 -17 -81 -65 -138 -108 l-104 -77 788 -3 788
-3 88 93 87 93 -112 7 c-62 3 -387 11 -722 17 -335 6 -611 13 -613 15 -4 3
271 214 363 278 l53 38 603 -10 c332 -6 631 -13 666 -16 l62 -6 -137 -146
c-76 -81 -141 -148 -145 -150 -33 -15 42 -20 390 -25 218 -4 508 -10 644 -14
l246 -6 4 27 c2 15 8 25 13 24 6 -2 9 -44 7 -110 l-4 -108 2001 0 2001 0 0 23
c0 12 7 47 16 77 8 30 18 71 20 90 3 19 9 39 13 45 5 5 11 26 14 45 3 19 13
64 21 100 18 73 34 148 43 198 3 18 9 35 14 38 5 3 9 12 9 20 0 19 61 148 72
152 4 2 8 12 8 22 0 11 4 29 9 42 5 13 15 43 22 68 7 25 16 49 21 55 4 5 8 17
8 27 0 10 4 26 9 36 5 9 16 44 25 77 10 33 22 74 27 91 5 17 9 39 9 50 0 22
23 90 33 100 4 4 7 20 7 35 0 15 4 31 10 34 5 3 10 18 10 32 0 15 4 40 9 57 5
17 15 51 22 76 7 25 16 49 21 55 4 5 8 24 8 42 0 18 4 41 9 51 12 24 42 148
48 202 3 25 9 50 14 56 5 6 9 22 8 35 0 13 7 58 15 99 29 144 37 185 37 200 0
27 21 125 30 142 5 10 9 29 9 42 0 14 4 27 9 30 10 7 22 125 26 254 2 51 5 96
8 98 2 3 80 -3 173 -12 93 -8 228 -20 299 -24 72 -5 166 -13 210 -19 44 -6
208 -22 365 -36 290 -26 824 -74 1320 -119 151 -14 296 -28 322 -31 45 -5 47
-5 50 22 2 22 8 28 25 26 l23 -3 0 4024 0 4023 -86 13 c-48 7 -109 19 -138 26
-42 11 -453 14 -2449 14 l-2398 0 42 -61 c146 -216 215 -515 179 -774 -52
-365 -252 -656 -565 -821 -49 -26 -91 -48 -93 -49 -2 -2 13 -20 32 -41 38 -41
41 -59 5 -25 -28 26 -39 27 -39 1 0 -16 -7 -20 -31 -20 -17 0 -37 7 -45 15 -9
9 -36 16 -67 16 -91 3 -121 7 -172 23 -64 20 -141 21 -148 2 -4 -9 -14 -12
-25 -9 -14 3 -27 -4 -43 -26 -19 -26 -29 -31 -67 -31 -39 0 -43 2 -40 23 2 16
9 22 26 21 41 -1 23 11 -44 30 -144 41 -300 133 -418 245 -328 313 -433 799
-269 1236 15 39 33 77 40 86 7 8 13 19 13 23 0 4 18 35 40 69 l41 62 -1222 3
c-672 1 -1224 0 -1227 -3 -3 -2 -7 -27 -10 -55 -3 -36 -1 -50 8 -50 9 0 10 -3
2 -13 -8 -9 -15 -173 -22 -475 -6 -254 -13 -470 -15 -480 -3 -16 10 -21 86
-35 307 -58 570 -303 665 -622 34 -116 39 -309 10 -420 -25 -99 -96 -239 -157
-313 -296 -358 -860 -382 -1205 -51 -22 22 -44 36 -49 32 -4 -5 -5 -3 -2 3 4
7 -1 18 -10 25 -58 49 -147 204 -189 330 -26 78 -28 96 -29 249 0 156 2 169
28 245 67 190 179 331 337 426 32 20 57 39 55 43 -3 3 -2 4 1 2 3 -3 41 8 85
24 88 33 226 54 305 48 l54 -5 0 121 c1 138 15 610 26 829 l7 147 -806 0 -807
0 0 -3115z m1777 3024 c28 -11 28 -11 6 -22 -26 -11 -31 -37 -9 -37 20 0 25
-86 8 -124 l-14 -29 -24 29 c-13 16 -28 34 -33 40 -5 6 -5 17 1 27 7 13 5 15
-7 11 -10 -4 -15 0 -15 11 0 9 -9 19 -21 22 -12 4 -18 11 -15 20 3 8 6 17 6
19 0 2 7 4 15 4 8 0 15 9 15 20 0 15 7 20 29 20 16 0 42 -5 58 -11z m421 -195
c18 -5 7 -20 -30 -38 -28 -15 -32 -14 -43 1 -7 10 -20 14 -33 11 -31 -8 -16
19 16 30 24 9 54 8 90 -4z m51 -13 c19 -12 4 -31 -25 -31 -22 0 -23 2 -12 20
14 22 17 23 37 11z m-49 -51 c0 -5 -2 -10 -4 -10 -3 0 -8 5 -11 10 -3 6 -1 10
4 10 6 0 11 -4 11 -10z m2430 -1450 c13 -8 13 -10 -2 -10 -9 0 -29 -11 -45
-24 -23 -20 -25 -26 -14 -40 10 -12 18 -13 33 -5 14 7 23 7 34 -2 25 -21 16
-31 -23 -25 -122 19 -123 19 -123 3 0 -9 8 -20 17 -26 15 -8 15 -11 3 -27 -8
-9 -34 -26 -58 -36 -29 -13 -42 -24 -38 -33 3 -8 1 -17 -5 -21 -21 -13 -27
-48 -10 -61 10 -8 11 -12 4 -13 -8 0 -11 -10 -7 -28 5 -24 2 -29 -28 -37 -36
-11 -41 -28 -8 -33 29 -5 25 -18 -12 -33 -18 -7 -50 -26 -70 -42 -20 -16 -41
-26 -47 -22 -17 10 -13 25 7 25 28 0 60 41 64 80 2 23 8 35 18 35 10 0 16 12
18 38 2 20 7 37 13 37 5 0 9 18 9 40 0 22 5 40 10 40 6 0 10 9 10 20 0 11 6
20 13 20 7 0 18 9 24 19 8 13 19 18 33 14 20 -5 28 11 10 22 -16 10 -12 35 5
35 9 0 21 5 28 11 7 5 27 19 45 29 19 12 32 28 32 40 0 22 33 28 60 10z m200
0 c0 -5 -10 -10 -22 -9 -22 0 -22 1 -3 9 11 5 21 9 23 9 1 1 2 -3 2 -9z m570
-5 c0 -9 6 -12 15 -9 8 4 15 1 15 -5 0 -6 7 -11 15 -11 8 0 15 -4 15 -10 0
-16 -17 -12 -55 13 -37 24 -44 37 -20 37 8 0 15 -7 15 -15z m-2107 -9 c3 3 34
-2 69 -11 34 -9 74 -19 88 -21 14 -3 79 -18 145 -33 66 -16 157 -37 203 -46
45 -10 82 -21 82 -24 0 -3 -28 -15 -62 -25 -35 -11 -102 -32 -150 -48 -49 -16
-93 -26 -100 -22 -6 4 -8 3 -5 -2 3 -6 -20 -9 -56 -7 -34 1 -63 7 -65 13 -2 6
-24 8 -57 4 -48 -6 -53 -5 -60 15 -3 12 -15 21 -26 21 -12 0 -19 7 -19 19 0
25 -30 34 -80 26 l-40 -7 0 37 c0 38 35 85 65 85 8 0 15 9 15 20 0 16 4 18 24
10 13 -5 26 -6 29 -4z m2217 -46 c0 -5 -7 -10 -15 -10 -8 0 -15 5 -15 10 0 6
7 10 15 10 8 0 15 -4 15 -10z m55 -30 c10 -11 22 -20 27 -20 5 0 34 -24 65
-52 30 -29 60 -55 66 -57 6 -2 20 -12 31 -23 11 -10 26 -18 33 -18 7 0 13 -9
13 -20 0 -15 7 -20 26 -20 26 0 54 -20 54 -39 0 -5 14 -23 31 -40 17 -17 27
-35 24 -41 -8 -12 -85 66 -85 86 0 8 -10 14 -25 14 -16 0 -40 15 -66 40 -23
22 -48 40 -56 40 -7 0 -16 6 -19 14 -3 8 -19 19 -35 25 -16 6 -33 21 -39 35
-6 16 -17 26 -29 26 -11 0 -25 9 -31 20 -6 11 -20 20 -30 20 -20 0 -26 11 -13
23 12 13 40 7 58 -13z m-2038 -176 c-3 -3 -12 -4 -19 -1 -8 3 -5 6 6 6 11 1
17 -2 13 -5z m2465 -202 c9 -19 24 -39 34 -46 10 -8 15 -20 11 -28 -3 -10 4
-25 19 -39 32 -30 74 -116 74 -151 0 -15 5 -28 10 -28 6 0 10 -58 10 -155 0
-97 -4 -155 -10 -155 -5 0 -10 -25 -10 -55 0 -30 -4 -55 -10 -55 -13 0 -13 49
1 163 10 84 6 172 -14 287 -5 32 -56 130 -67 130 -9 0 -70 86 -70 99 0 5 -9
20 -20 33 -10 14 -16 28 -13 32 14 14 39 0 55 -32z m-1774 -92 c4 -23 -26 -90
-40 -90 -14 0 -20 21 -9 34 6 7 12 26 13 42 1 16 3 33 6 37 7 15 27 1 30 -23z
m-54 -207 c-4 -60 -8 -110 -10 -112 -2 -2 -4 46 -4 107 0 70 4 112 10 112 7 0
8 -36 4 -107z m346 68 c0 -11 7 -27 16 -35 8 -9 13 -20 9 -25 -3 -5 -1 -12 5
-16 15 -9 12 -25 -4 -25 -7 0 -16 -9 -19 -21 -5 -18 -2 -21 22 -17 24 4 27 1
23 -19 -4 -20 0 -23 27 -23 l32 0 -3 -87 -3 -87 35 -23 c19 -12 40 -26 45 -31
6 -4 36 -16 68 -27 32 -11 53 -21 47 -23 -7 -3 -5 -11 6 -23 9 -10 21 -16 26
-13 15 9 79 -6 73 -17 -4 -5 -9 -8 -13 -5 -4 2 -15 -4 -25 -14 -15 -15 -16
-20 -4 -31 20 -21 42 -150 30 -185 -9 -26 -14 -29 -53 -29 -34 0 -45 -4 -50
-20 -5 -13 -8 0 -8 35 0 30 -3 70 -7 88 -5 21 -4 32 4 32 6 0 11 11 11 24 0
48 -113 119 -161 101 -48 -18 -128 -8 -114 14 9 15 -55 18 -75 4 -26 -19 -60
-94 -63 -140 -3 -48 17 -53 81 -21 53 25 69 25 95 -4 18 -18 18 -20 1 -39 -9
-10 -26 -19 -36 -19 -28 0 -54 -16 -77 -49 -18 -24 -19 -32 -8 -55 13 -29 25
-33 33 -13 6 17 82 21 101 5 12 -10 11 -14 -9 -24 -13 -8 -39 -13 -59 -14 -28
0 -38 -5 -42 -20 -3 -12 1 -21 12 -25 9 -3 25 -22 36 -42 11 -21 25 -42 32
-46 7 -4 13 -14 13 -21 0 -8 7 -16 15 -20 19 -7 20 -44 2 -65 -29 -34 -75
-201 -56 -201 5 0 9 -18 9 -40 0 -38 37 -129 52 -130 4 0 15 12 25 28 9 15 18
29 19 30 5 7 64 -33 64 -43 1 -19 86 -75 111 -73 19 2 25 -2 27 -22 5 -36 20
-50 54 -50 25 0 27 -2 18 -19 -5 -11 -10 -29 -10 -40 0 -29 21 -71 32 -64 6 3
5 -4 -1 -15 -16 -29 -14 -32 17 -33 23 -2 24 -2 5 -6 -15 -3 -23 -12 -23 -24
0 -13 -7 -19 -21 -19 -19 0 -19 -1 -5 -16 18 -18 21 -54 5 -54 -6 0 -4 -6 4
-14 8 -9 12 -26 10 -39 -5 -24 9 -35 54 -43 18 -3 73 -44 73 -54 0 -4 19 -11
43 -15 62 -11 99 -35 94 -62 -4 -20 -2 -21 17 -11 12 6 44 29 71 52 46 38 83
65 127 91 81 48 184 128 210 162 7 10 49 50 93 89 49 44 91 92 108 123 31 59
33 71 11 71 -12 0 -14 3 -6 13 9 12 16 45 27 137 l5 45 -15 -45 c-9 -25 -18
-54 -20 -64 -2 -10 -15 -34 -27 -53 -20 -29 -27 -32 -53 -27 -16 4 -32 8 -35
11 -7 7 -7 153 0 153 12 0 31 110 21 127 -11 21 -3 73 10 73 16 0 27 44 18 68
-14 37 -27 132 -17 132 4 0 8 -9 8 -20 0 -11 7 -20 15 -20 10 0 15 11 15 35 0
22 6 37 17 44 12 6 14 13 7 23 -5 7 -7 31 -3 53 3 22 7 31 8 20 1 -15 3 -17
10 -6 7 11 10 9 16 -8 3 -11 15 -26 25 -31 18 -9 19 -20 15 -113 -2 -56 -8
-124 -15 -151 -6 -26 -8 -56 -5 -66 8 -24 47 -41 61 -26 6 6 31 30 56 53 25
23 54 62 64 87 22 53 34 59 34 16 0 -16 -4 -30 -10 -30 -5 0 -10 -10 -10 -23
0 -26 -57 -100 -73 -94 -17 5 -57 -42 -57 -68 0 -14 -5 -25 -11 -25 -16 0 -8
-272 9 -278 7 -2 19 -17 28 -34 12 -23 18 -27 29 -18 11 9 16 4 24 -28 13 -48
-4 -116 -43 -167 -14 -18 -26 -36 -26 -39 0 -3 -21 -33 -47 -67 -27 -34 -69
-93 -95 -133 -74 -111 -129 -186 -178 -242 -111 -126 -210 -260 -240 -321 -11
-24 -37 -59 -57 -79 -32 -32 -243 -335 -243 -349 0 -4 -18 -33 -41 -66 -46
-68 -106 -176 -148 -264 -16 -34 -35 -67 -42 -75 -8 -8 -22 -32 -32 -53 -9
-21 -21 -36 -26 -33 -5 3 -11 -4 -14 -17 -23 -95 -38 -149 -46 -164 -5 -10
-13 -27 -17 -38 -20 -56 -44 -117 -69 -175 -15 -36 -37 -89 -49 -117 -11 -29
-26 -53 -32 -53 -6 0 -14 21 -17 48 -4 26 -11 79 -17 117 -19 126 -29 417 -19
585 9 164 38 311 91 456 12 32 22 88 24 124 4 84 14 149 25 156 5 3 9 15 9 27
0 19 -3 17 -30 -13 -35 -40 -35 -37 5 87 17 51 35 93 41 93 5 0 17 16 24 36 8
20 28 48 45 62 l30 25 -55 -7 c-75 -10 -59 0 20 13 45 7 70 17 82 32 10 12 23
17 29 13 8 -5 9 -3 4 6 -5 9 -2 10 12 6 15 -5 19 -2 18 14 -1 11 -5 23 -10 27
-4 5 -5 3 -2 -3 9 -15 -40 -37 -49 -22 -4 7 -3 8 4 4 8 -5 12 0 12 13 0 10 5
21 11 23 8 3 6 10 -5 20 -9 9 -16 26 -16 36 0 11 -4 22 -8 24 -16 6 -69 93
-76 123 -12 52 -18 89 -18 106 0 9 -24 43 -54 75 -30 32 -60 71 -67 87 -6 15
-18 27 -25 27 -7 0 -16 10 -21 23 -5 13 -16 29 -25 36 -9 7 -16 18 -16 23 0 5
-9 21 -20 35 -11 14 -20 34 -20 44 0 11 -4 19 -10 19 -5 0 -10 9 -10 19 0 11
-5 23 -10 26 -6 4 -8 10 -5 15 3 5 1 11 -5 15 -5 3 -10 17 -10 30 0 13 -13 37
-30 53 -17 18 -30 41 -30 56 0 13 -4 28 -10 31 -5 3 -10 26 -10 51 0 24 -4 44
-10 44 -5 0 -10 13 -10 29 0 17 -4 33 -10 36 -5 3 -10 20 -10 36 0 16 -8 39
-19 50 -24 26 -67 110 -63 123 2 6 -5 3 -16 -7 -26 -24 -43 -21 -91 16 -28 21
-41 38 -37 50 2 9 0 15 -4 12 -4 -3 -18 19 -30 49 -23 54 -49 76 -90 76 -17 0
-20 -7 -20 -41 0 -33 3 -40 15 -35 10 3 15 1 13 -7 -2 -7 2 -14 7 -16 6 -2 15
-11 21 -19 6 -8 15 -12 20 -9 6 3 10 -6 10 -21 0 -27 -31 -62 -51 -57 -56 17
-65 15 -75 -11 -10 -24 -12 -25 -28 -11 -13 12 -22 13 -35 5 -15 -8 -19 -6
-24 11 -4 16 -11 20 -25 16 -17 -6 -18 -1 -17 49 1 33 7 56 13 56 6 0 5 4 -3
9 -7 5 -10 14 -7 20 4 6 2 11 -3 11 -6 0 -11 5 -11 10 0 6 7 10 16 10 8 0 12
5 9 10 -3 6 -15 10 -25 10 -10 0 -21 6 -23 13 -3 6 -6 3 -6 -8 -1 -15 -9 -21
-28 -23 -15 -1 -31 -8 -36 -15 -6 -9 -7 -8 -5 3 3 8 15 17 27 20 20 4 32 26
14 24 -56 -5 -94 -19 -92 -33 3 -25 -13 -121 -21 -126 -32 -20 -119 -8 -105
14 8 14 -25 22 -45 11 -15 -8 -18 -7 -14 3 3 9 -3 17 -15 20 -13 3 -19 1 -15
-5 3 -5 -8 -2 -25 6 -19 10 -31 24 -31 37 0 11 -4 29 -10 39 -16 29 -22 167
-12 258 7 59 16 92 33 117 22 31 27 34 60 29 39 -7 69 13 69 45 0 31 19 39 83
34 61 -4 137 -29 137 -44 0 -4 18 -16 40 -28 35 -18 47 -20 85 -11 64 14 96
-3 110 -60 1 -3 5 -31 9 -62 l8 -58 39 0 c24 0 39 -5 40 -12 0 -7 4 -3 9 10 5
12 14 22 20 22 5 0 10 5 10 10 0 6 9 20 20 32 11 12 20 28 20 35 0 7 7 13 15
13 8 0 15 5 15 10 0 6 6 10 14 10 9 0 16 16 19 43 7 51 4 75 -11 104 -12 21
-7 53 8 53 11 0 23 -56 26 -115 1 -27 9 -70 19 -95 9 -25 20 -62 22 -83 3 -20
9 -40 14 -43 5 -3 9 -16 9 -30 0 -14 12 -61 27 -106 19 -58 23 -83 15 -86 -14
-4 -15 -25 -3 -50 5 -9 14 -29 22 -45 22 -48 29 -9 24 144 -5 133 -3 154 20
250 14 57 30 146 35 196 10 96 30 153 55 153 10 0 13 10 11 36 -2 32 -1 34 10
19 11 -15 14 -12 24 26 7 24 14 47 17 52 8 14 23 7 23 -12z m-943 -267 c-3 -3
-12 -4 -19 -1 -8 3 -5 6 6 6 11 1 17 -2 13 -5z m2543 -323 c0 -22 5 -43 10
-46 6 -3 10 -17 10 -31 0 -13 5 -24 10 -24 6 0 10 -10 10 -23 0 -13 6 -29 13
-36 10 -11 10 -14 0 -18 -8 -3 -13 -24 -13 -54 0 -27 -4 -49 -10 -49 -5 0 -10
-11 -10 -25 0 -14 -4 -25 -10 -25 -5 0 -10 -5 -10 -12 0 -23 -45 -108 -57
-108 -7 0 -13 6 -13 13 0 17 28 76 46 97 7 8 20 41 29 74 20 67 15 136 -14
202 -18 40 -18 104 0 104 5 0 9 -18 9 -39z m-70 -133 c5 -16 5 -28 1 -28 -12
0 -41 81 -34 93 6 10 17 -11 33 -65z m-828 17 c5 -21 1 -25 -19 -25 -19 0 -24
4 -19 16 3 9 6 20 6 25 0 21 28 7 32 -16z m-618 -61 c8 -22 8 -24 -8 -24 -18
0 -29 16 -21 30 9 15 22 12 29 -6z m1314 -29 c2 -28 -12 -34 -22 -9 -9 24 -7
34 7 34 7 0 14 -11 15 -25z m-1088 -205 c0 -11 0 -23 -1 -26 0 -4 4 -10 10
-13 13 -8 53 -101 43 -101 -4 0 -15 -16 -24 -35 -8 -19 -12 -35 -7 -35 5 0 9
-7 9 -15 0 -12 -10 -14 -52 -11 -29 3 -59 5 -66 6 -7 0 -11 4 -8 9 4 5 -3 7
-14 4 -11 -3 -17 -9 -14 -14 2 -5 -4 -14 -16 -21 -11 -7 -20 -21 -20 -30 0
-16 10 -18 69 -18 74 0 126 -13 116 -30 -3 -5 -32 -10 -63 -10 -31 0 -75 -7
-97 -14 -22 -8 -43 -11 -46 -8 -13 14 -21 90 -10 97 6 3 11 19 11 35 0 26 16
58 65 128 9 13 26 22 41 22 29 0 48 37 38 76 -5 20 -2 24 15 24 14 0 21 -6 21
-20z m-80 -8 c0 -13 -12 -22 -22 -16 -10 6 -1 24 13 24 5 0 9 -4 9 -8z m1147
-34 c-3 -7 -5 -2 -5 12 0 14 2 19 5 13 2 -7 2 -19 0 -25z m120 -11 c-17 -39
-37 -57 -37 -32 0 16 41 78 47 71 2 -2 -2 -20 -10 -39z m-607 -119 c0 -10 -3
-10 -35 2 -14 5 -24 14 -20 20 7 11 55 -8 55 -22z m0 -46 c0 -13 -3 -12 -15 4
-19 25 -19 40 0 24 8 -7 15 -20 15 -28z m20 -102 c0 -64 -3 -82 -16 -87 -28
-11 -36 11 -20 58 9 24 16 59 16 77 0 17 5 32 10 32 6 0 10 -33 10 -80z m-703
34 c-3 -3 -12 -4 -19 -1 -8 3 -5 6 6 6 11 1 17 -2 13 -5z m201 -100 c7 -13 13
-14 29 -6 11 6 50 9 88 7 38 -1 76 2 85 8 25 15 52 1 48 -25 -2 -19 -10 -24
-40 -26 -21 -2 -38 -7 -38 -13 0 -5 -15 -9 -33 -9 -18 0 -38 -5 -45 -12 -17
-17 -122 -29 -145 -16 -10 5 -37 11 -58 13 -49 3 -69 20 -69 55 0 27 2 28 56
29 31 0 59 3 62 6 12 11 52 4 60 -11z m302 1 c0 -8 -7 -15 -15 -15 -26 0 -18
20 13 29 1 1 2 -6 2 -14z m-3722 -380 c0 -101 -2 -132 -9 -110 -5 17 -8 46 -7
65 1 20 -2 42 -6 49 -5 8 -4 16 4 21 9 6 11 37 7 126 -3 83 -3 99 3 54 4 -36
8 -128 8 -205z m4459 129 c-9 -9 -28 6 -21 18 4 6 10 6 17 -1 6 -6 8 -13 4
-17z m92 2 c-2 -2 -17 -2 -34 2 -30 6 -30 6 -5 12 23 6 50 -4 39 -14z m51 -21
c21 -25 1 -31 -22 -7 -18 18 -19 22 -6 22 8 0 21 -7 28 -15z m-4643 -87 c-2
-13 -4 -3 -4 22 0 25 2 35 4 23 2 -13 2 -33 0 -45z m562 7 c0 -5 -4 -3 -9 5
-5 8 -9 22 -9 30 0 16 17 -16 18 -35z m4111 30 c0 -8 -4 -15 -10 -15 -5 0 -10
7 -10 15 0 8 5 15 10 15 6 0 10 -7 10 -15z m20 -41 c0 -9 -5 -14 -12 -12 -18
6 -21 28 -4 28 9 0 16 -7 16 -16z m26 -39 c19 -19 8 -41 -12 -24 -14 11 -20
39 -8 39 3 0 12 -7 20 -15z m-4162 -117 c-2 -103 -2 -98 -15 -98 -8 0 -9 18
-5 58 8 67 17 122 21 122 1 0 1 -37 -1 -82z m4262 -6 c25 -24 31 -42 15 -42
-10 0 -94 95 -100 113 -3 11 27 -14 85 -71z m-4579 -114 c-2 -29 -3 -6 -3 52
0 58 1 81 3 53 2 -29 2 -77 0 -105z m-250 45 c-2 -16 -4 -5 -4 22 0 28 2 40 4
28 2 -13 2 -35 0 -50z m43 -78 c0 -63 -4 -115 -9 -115 -12 0 -20 44 -17 100 1
25 3 64 4 88 1 23 7 42 12 42 6 0 10 -45 10 -115z m5413 91 c13 -10 15 -16 7
-21 -7 -4 -10 -15 -7 -26 5 -18 -27 -57 -35 -42 -3 4 -3 2 -1 -5 1 -8 3 -20 3
-28 0 -9 4 -13 10 -9 5 3 6 13 3 22 -4 11 -3 14 5 9 7 -4 12 -13 12 -21 0 -18
-40 -46 -54 -38 -6 4 -24 6 -41 5 -27 -1 -28 0 -7 8 23 10 30 44 11 56 -8 4
-7 9 2 15 16 9 20 59 5 59 -5 0 -18 -7 -28 -17 -10 -9 -18 -12 -18 -7 0 16 64
54 90 54 14 0 33 -7 43 -14z m-543 -26 c0 -5 -7 -10 -15 -10 -8 0 -15 5 -15
10 0 6 7 10 15 10 8 0 15 -4 15 -10z m40 -20 c0 -5 -7 -10 -15 -10 -8 0 -15 5
-15 10 0 6 7 10 15 10 8 0 15 -4 15 -10z m55 -20 c4 -6 -5 -10 -19 -10 -14 0
-26 5 -26 10 0 6 9 10 19 10 11 0 23 -4 26 -10z m75 -20 c0 -5 -9 -10 -20 -10
-11 0 -20 5 -20 10 0 6 9 10 20 10 11 0 20 -4 20 -10z m-1860 -18 c0 -5 -6
-16 -13 -27 -10 -13 -16 -15 -21 -6 -4 6 -2 18 4 26 13 16 30 20 30 7z m1900
-2 c0 -5 9 -10 20 -10 11 0 20 -4 20 -10 0 -5 9 -10 20 -10 11 0 20 -4 20 -10
0 -15 -14 -12 -59 12 -39 21 -53 38 -31 38 6 0 10 -4 10 -10z m-2000 -76 c-52
-30 -87 -33 -51 -5 14 10 30 17 37 14 6 -2 14 3 17 11 4 9 13 13 22 10 12 -5
6 -13 -25 -30z m2135 13 c6 2 16 -6 23 -17 16 -25 8 -25 -34 1 -19 11 -31 26
-28 31 5 7 11 6 18 -4 6 -8 16 -13 21 -11z m-2035 -77 c0 -38 -4 -72 -10 -75
-6 -4 -10 23 -10 75 0 52 4 79 10 75 6 -3 10 -37 10 -75z m2130 30 c0 -5 -7
-10 -16 -10 -8 0 -12 5 -9 10 3 6 10 10 16 10 5 0 9 -4 9 -10z m153 -1 c7 0 1
-5 -12 -10 -13 -5 -32 -7 -42 -4 -11 4 -19 2 -19 -4 0 -6 8 -11 18 -11 38 0
152 -71 152 -95 0 -12 -17 -4 -48 24 -19 15 -65 39 -103 51 -38 13 -66 27 -62
31 12 11 76 28 91 23 8 -2 19 -4 25 -5z m-4956 -31 c-3 -7 -5 -2 -5 12 0 14 2
19 5 13 2 -7 2 -19 0 -25z m2463 12 c0 -5 -9 -14 -21 -20 -19 -11 -20 -10 -9
9 11 22 30 29 30 11z m-60 -40 c0 -5 -4 -10 -10 -10 -5 0 -10 5 -10 10 0 6 5
10 10 10 6 0 10 -4 10 -10z m-30 -18 c0 -10 -41 -35 -47 -28 -9 8 17 36 33 36
8 0 14 -3 14 -8z m-60 -40 c0 -4 -17 -15 -37 -25 -61 -30 -137 -71 -165 -89
-14 -9 -28 -14 -31 -11 -10 10 17 43 35 43 10 0 18 5 18 11 0 6 6 9 14 6 8 -3
20 1 27 9 6 8 14 12 16 10 3 -2 13 4 24 15 10 10 30 19 44 19 14 0 25 5 25 10
0 6 7 10 15 10 8 0 15 -3 15 -8z m-2623 -139 c-2 -27 -3 -5 -3 47 0 52 1 74 3
48 2 -27 2 -69 0 -95z m5473 117 c0 -13 -60 -13 -80 0 -11 7 -2 10 33 10 26 0
47 -4 47 -10z m60 -20 c0 -5 9 -10 20 -10 11 0 20 -4 20 -10 0 -5 -6 -10 -14
-10 -8 0 -18 5 -21 10 -3 6 -15 10 -25 10 -10 0 -22 5 -25 10 -4 6 5 10 19 10
14 0 26 -4 26 -10z m118 -55 c15 -14 23 -25 19 -25 -4 0 -25 11 -45 25 -25 17
-31 25 -19 25 10 0 30 -11 45 -25z m-3287 -38 c-1 -12 -15 -9 -19 4 -3 6 1 10
8 8 6 -3 11 -8 11 -12z m3435 -105 c-3 -3 -31 20 -61 50 -30 30 -52 58 -48 62
4 4 31 -19 61 -50 29 -31 51 -58 48 -62z m-3462 89 c3 -4 -16 -22 -42 -39 -26
-17 -57 -40 -69 -51 -12 -12 -25 -21 -28 -21 -3 0 -15 -9 -27 -20 -12 -11 -28
-20 -35 -20 -26 0 -95 -53 -106 -81 -4 -9 -6 -7 -6 6 -1 29 68 95 99 95 14 0
32 9 40 20 8 11 18 20 23 20 5 0 34 23 64 50 53 48 76 59 87 41z m-2034 -111
c-9 -39 -9 -55 -1 -58 17 -6 13 -51 -5 -70 -15 -15 -16 -10 -10 59 9 116 19
178 24 149 2 -14 -1 -50 -8 -80z m5530 10 c0 -5 -2 -10 -4 -10 -3 0 -8 5 -11
10 -3 6 -1 10 4 10 6 0 11 -4 11 -10z m69 -42 c27 -27 39 -48 28 -48 -2 0 -21
18 -42 40 -21 22 -34 40 -28 40 6 0 25 -14 42 -32z m-5912 -160 c-2 -18 -4 -4
-4 32 0 36 2 50 4 33 2 -18 2 -48 0 -65z m6086 31 c20 0 19 -2 -5 -11 -24 -8
-31 -6 -52 19 -31 36 -23 51 10 18 14 -14 35 -25 47 -26z m-4079 -6 c-10 -16
-28 -47 -40 -71 -15 -29 -24 -39 -30 -31 -4 7 -2 15 4 17 7 2 12 12 12 23 0
10 5 19 10 19 6 0 10 9 10 19 0 11 10 27 22 35 31 22 33 20 12 -11z m-1707
-75 c-2 -13 -4 -3 -4 22 0 25 2 35 4 23 2 -13 2 -33 0 -45z m5791 41 c-2 -6
-8 -10 -13 -10 -5 0 -11 4 -13 10 -2 6 4 11 13 11 9 0 15 -5 13 -11z m15 -64
c-3 -8 0 -15 6 -15 6 0 11 -9 11 -19 0 -11 4 -21 9 -23 17 -6 18 -68 1 -68 -5
0 -10 11 -10 25 0 13 -9 41 -21 61 -19 35 -19 72 0 59 6 -3 8 -12 4 -20z
m-4177 -92 c-3 -43 -10 -94 -15 -113 -5 -19 -12 -52 -16 -73 -3 -21 -10 -35
-16 -32 -15 10 -11 75 5 81 12 4 13 17 9 56 -4 36 -2 52 8 58 9 6 12 24 10 54
-2 31 1 46 10 46 9 0 10 -20 5 -77z m-1939 -125 c-2 -35 -3 -7 -3 62 0 69 1
97 3 63 2 -35 2 -91 0 -125z m280 25 c-2 -16 -4 -3 -4 27 0 30 2 43 4 28 2
-16 2 -40 0 -55z m35 25 c2 -20 0 -34 -4 -32 -4 3 -8 24 -7 47 1 47 6 41 11
-15z m5861 18 c8 -19 -3 -57 -14 -50 -12 7 -12 64 0 64 5 0 11 -6 14 -14z m11
-132 l-8 -39 -7 40 c-7 43 -2 62 13 47 5 -5 6 -26 2 -48z m-5874 -13 c0 -11
-4 -23 -10 -26 -6 -4 -10 5 -10 19 0 14 5 26 10 26 6 0 10 -9 10 -19z m-323
-168 c-2 -32 -3 -6 -3 57 0 63 1 89 3 58 2 -32 2 -84 0 -115z m321 17 c-1 -60
-5 -104 -9 -98 -4 7 -10 -12 -12 -42 -2 -30 -2 -10 0 45 2 55 6 111 7 125 2
14 4 37 4 53 1 15 4 27 7 27 2 0 3 -49 3 -110z m1579 18 c0 -48 7 -108 17
-143 26 -89 30 -433 8 -568 -10 -55 -20 -95 -24 -91 -12 11 -10 112 2 116 16
5 18 496 3 503 -7 2 -13 20 -13 39 0 19 -4 37 -10 41 -9 6 -13 162 -4 177 14
22 20 0 21 -74z m4290 -30 c-3 -8 -6 -5 -6 6 -1 11 2 17 5 13 3 -3 4 -12 1
-19z m0 -70 c-3 -8 -6 -5 -6 6 -1 11 2 17 5 13 3 -3 4 -12 1 -19z m-5910 -50
c-2 -13 -4 -3 -4 22 0 25 2 35 4 23 2 -13 2 -33 0 -45z m-280 0 c-2 -13 -4 -5
-4 17 -1 22 1 32 4 23 2 -10 2 -28 0 -40z m6214 -80 c-9 -32 -9 -31 -10 17 0
38 2 46 10 33 6 -11 6 -29 0 -50z m1036 0 c-2 -13 -4 -3 -4 22 0 25 2 35 4 23
2 -13 2 -33 0 -45z m-20 -90 c-2 -24 -4 -7 -4 37 0 44 2 63 4 43 2 -21 2 -57
0 -80z m-7240 0 c-3 -7 -5 -2 -5 12 0 14 2 19 5 13 2 -7 2 -19 0 -25z m6259
-82 c10 -8 12 -19 6 -41 -11 -39 -20 -22 -25 50 -2 33 -2 47 0 31 3 -17 11
-35 19 -40z m1821 22 c-3 -7 -5 -2 -5 12 0 14 2 19 5 13 2 -7 2 -19 0 -25z
m153 -18 l0 -50 -50 0 -50 0 0 50 0 50 50 0 50 0 0 -50z m-7912 -82 c1 -107
-13 -261 -17 -187 0 15 -4 41 -8 59 -5 26 -3 31 7 25 11 -7 12 13 6 108 -4 69
-3 117 2 117 5 0 10 -55 10 -122z m7765 11 c-8 -28 -12 -23 -11 12 1 17 4 25
8 18 4 -6 5 -20 3 -30z m-846 -1 c-3 -8 -6 -5 -6 6 -1 11 2 17 5 13 3 -3 4
-12 1 -19z m-7240 -80 c-2 -18 -4 -6 -4 27 0 33 2 48 4 33 2 -15 2 -42 0 -60z
m6287 -54 c-4 -26 -2 -44 5 -48 7 -5 10 -39 10 -89 l-2 -82 -8 55 c-5 30 -14
80 -19 111 -12 65 -13 123 -3 133 13 13 24 -37 17 -80z m973 24 c-2 -13 -4 -5
-4 17 -1 22 1 32 4 23 2 -10 2 -28 0 -40z m-6947 -160 c0 -19 -2 -20 -10 -8
-13 19 -13 30 0 30 6 0 10 -10 10 -22z m-693 -60 c-3 -7 -5 -2 -5 12 0 14 2
19 5 13 2 -7 2 -19 0 -25z m680 -70 c-2 -13 -4 -3 -4 22 0 25 2 35 4 23 2 -13
2 -33 0 -45z m1607 -74 c-7 -95 -9 -103 -15 -64 -10 59 -11 175 -2 184 18 18
24 -20 17 -120z m4416 -50 c0 -47 -4 -73 -10 -69 -5 3 -10 37 -10 76 0 39 4
69 10 69 6 0 10 -32 10 -76z m-6340 -131 c0 -26 -2 -44 -4 -42 -8 9 -13 98 -5
93 5 -3 9 -26 9 -51z m317 0 c-3 -10 -5 -4 -5 12 0 17 2 24 5 18 2 -7 2 -21 0
-30z m1622 -241 c1 -13 -3 -21 -9 -17 -5 3 -7 12 -4 19 3 7 -2 16 -10 19 -17
7 -20 38 -9 102 7 40 7 40 19 -30 7 -38 13 -80 13 -93z m4421 43 c0 -43 -4
-75 -10 -75 -11 0 -14 108 -4 134 11 29 14 17 14 -59z m1532 55 c6 0 3 -8 -6
-19 -9 -10 -18 -28 -19 -40 -3 -41 -16 -20 -15 25 0 35 4 44 15 40 8 -3 19 -6
25 -6z m-222 -27 c0 -14 -2 -15 -9 -5 -6 10 -10 10 -20 -1 -9 -12 -8 -16 8
-20 24 -6 60 28 39 36 -7 3 -1 6 14 6 33 1 60 -24 56 -53 -2 -17 -10 -21 -43
-22 -67 -3 -93 6 -98 32 -2 12 1 28 6 33 17 17 47 13 47 -6z m-5749 -116 c-1
-4 -1 -14 -1 -23 0 -8 -4 -12 -10 -9 -13 8 -13 48 1 43 6 -2 10 -7 10 -11z
m5933 -22 c-4 -8 -8 -15 -10 -15 -2 0 -4 7 -4 15 0 8 4 15 10 15 5 0 7 -7 4
-15z m-566 -11 c52 -4 85 -11 88 -19 3 -6 -2 -32 -10 -56 -9 -24 -16 -55 -16
-68 0 -18 -4 -22 -17 -16 -10 4 -49 11 -88 15 -69 7 -69 7 -20 10 43 3 45 4
15 7 -20 2 -61 0 -93 -5 -67 -10 -66 -12 -36 83 l20 67 37 -6 c20 -3 74 -8
120 -12z m509 -16 c-3 -7 -5 -2 -5 12 0 14 2 19 5 13 2 -7 2 -19 0 -25z
m-5889 -15 c-4 -22 -22 -20 -26 1 -2 10 3 16 13 16 10 0 15 -7 13 -17z m5882
-33 c0 -5 -2 -10 -4 -10 -3 0 -8 5 -11 10 -3 6 -1 10 4 10 6 0 11 -4 11 -10z
m-8945 -10 c3 -5 -1 -10 -9 -10 -8 0 -18 5 -21 10 -3 6 1 10 9 10 8 0 18 -4
21 -10z m3045 -16 c0 -8 -4 -14 -9 -14 -5 0 -12 -15 -16 -32 l-8 -33 -4 29
c-3 16 0 32 7 36 6 4 10 11 9 16 -3 18 1 25 11 19 6 -3 10 -13 10 -21z m6427
-90 c-3 -3 -12 -4 -19 -1 -8 3 -5 6 6 6 11 1 17 -2 13 -5z m-6467 -28 c0 -14
-4 -28 -10 -31 -6 -4 -10 7 -10 24 0 17 5 31 10 31 6 0 10 -11 10 -24z m6427
18 c-3 -3 -12 -4 -19 -1 -8 3 -5 6 6 6 11 1 17 -2 13 -5z m171 -1 c-10 -2 -26
-2 -35 0 -10 3 -2 5 17 5 19 0 27 -2 18 -5z m-91 -19 c-3 -3 -12 -4 -19 -1 -8
3 -5 6 6 6 11 1 17 -2 13 -5z m120 -30 c-3 -3 -12 -4 -19 -1 -8 3 -5 6 6 6 11
1 17 -2 13 -5z m-6783 -34 c86 -9 111 -8 117 2 17 27 22 -5 11 -66 -7 -35 -12
-93 -12 -130 0 -36 -4 -74 -9 -84 -17 -32 -31 -170 -21 -197 6 -15 10 -41 10
-60 0 -19 5 -37 10 -40 14 -8 13 -138 -1 -152 -13 -13 -7 -116 10 -183 6 -25
14 -64 18 -88 3 -23 10 -45 14 -48 21 -13 0 -124 -23 -124 -5 0 -8 -9 -8 -20
0 -11 -4 -20 -10 -20 -5 0 -10 -7 -10 -15 0 -8 -4 -15 -10 -15 -5 0 -10 -9
-10 -21 0 -12 -11 -30 -25 -41 -24 -19 -25 -24 -20 -82 6 -65 23 -135 37 -151
4 -5 8 -19 8 -31 0 -13 5 -26 10 -29 6 -3 10 -17 10 -31 0 -13 5 -24 10 -24 6
0 10 -7 10 -15 0 -8 5 -15 10 -15 6 0 10 -25 10 -55 0 -30 -4 -55 -8 -55 -5 0
-15 -12 -23 -27 -8 -16 -25 -44 -37 -63 -37 -55 -80 -156 -88 -205 -4 -30 0
-71 12 -121 16 -69 16 -86 4 -187 -14 -118 -15 -315 -2 -482 4 -54 5 -118 2
-141 l-5 -41 -122 39 -123 40 0 44 c0 50 8 53 75 29 54 -19 81 -18 30 1 -96
37 -107 44 -102 64 5 19 -2 20 -261 21 -147 1 -315 4 -374 8 l-107 6 127 130
127 130 300 -7 c165 -4 300 -6 301 -5 1 1 5 62 8 136 4 105 3 131 -7 124 -6
-5 -39 -10 -72 -10 -51 -1 -55 0 -25 7 19 5 -31 6 -111 3 -113 -5 -148 -3
-154 7 -5 8 -4 11 2 7 6 -4 13 0 17 8 3 8 12 15 20 15 7 0 17 11 20 25 6 24
26 36 26 15 0 -5 -5 -10 -11 -10 -5 0 -7 -5 -4 -10 10 -17 23 -11 27 12 2 12
9 23 17 26 9 3 11 0 6 -9 -5 -8 -4 -11 1 -6 5 5 10 13 10 18 1 5 2 13 3 18 0
5 11 11 22 14 19 5 21 11 16 39 -5 25 -4 29 4 15 5 -9 22 -17 37 -17 42 0 72
-11 72 -26 0 -8 9 -14 19 -14 26 0 36 -17 14 -22 -15 -3 -14 -5 5 -10 22 -6
22 -5 16 44 -7 48 -6 51 14 46 19 -5 21 0 26 66 3 39 8 208 11 376 4 168 8
325 10 350 2 25 6 176 10 335 3 160 8 311 11 338 6 45 5 47 -20 47 -25 0 -26
2 -26 58 0 33 3 93 6 134 l7 74 91 -4 c109 -5 108 7 -1 20 -135 15 -167 19
-190 24 -23 4 -23 7 -23 143 0 77 3 147 7 156 5 15 15 16 62 11 31 -3 105 -11
165 -16z m4666 -72 c0 -67 -17 -78 -19 -14 -1 33 3 56 9 56 5 0 10 -19 10 -42z
m19 -275 c-1 -53 -3 -61 -9 -38 -11 45 -11 105 0 105 6 0 10 -28 9 -67z m704
-120 c-7 -2 -19 -2 -25 0 -7 3 -2 5 12 5 14 0 19 -2 13 -5z m1116 -39 c9 -8
-115 -2 -134 6 -12 5 11 6 55 3 41 -3 77 -7 79 -9z m10 -20 c8 -7 -134 -2
-159 6 -14 4 16 5 65 2 50 -2 92 -6 94 -8z m-7492 -1380 c-3 -3 -12 -4 -19 -1
-8 3 -5 6 6 6 11 1 17 -2 13 -5z m-177 -40 c0 -8 7 -22 15 -30 21 -21 19 -32
-7 -38 -13 -2 41 -4 120 -3 78 2 142 -1 142 -5 0 -5 12 -8 26 -8 14 0 23 -4
19 -10 -4 -6 10 -10 34 -10 39 0 41 2 41 30 0 23 5 30 19 30 11 0 22 -6 24
-12 4 -9 8 -10 14 -2 4 6 29 14 55 18 39 6 48 4 57 -11 10 -17 10 -17 11 2 l1
20 9 -20 c7 -15 9 -16 9 -4 1 17 41 34 41 18 0 -5 5 -9 11 -9 15 0 39 -26 39
-44 0 -10 12 -16 38 -19 l37 -4 -42 -1 c-27 -1 -43 -7 -43 -15 0 -10 -64 -12
-307 -9 -170 2 -315 8 -323 12 -8 4 -73 6 -143 4 -110 -3 -127 -1 -117 11 6 7
18 11 26 8 8 -3 14 -1 12 4 -2 5 11 22 28 36 32 27 45 33 42 20 0 -5 2 -16 6
-25 10 -23 56 -24 56 -2 0 12 -6 15 -21 11 -12 -3 -18 -3 -15 0 3 4 0 13 -7
21 -9 13 -9 14 1 8 6 -4 12 -3 12 3 0 5 -6 12 -12 14 -8 3 -6 6 5 6 9 1 17 -5
18 -11 0 -7 5 -3 11 10 13 26 58 31 58 6z m750 -19 c8 -2 24 -4 35 -5 17 -2
16 -3 -5 -9 -32 -9 -116 9 -98 21 7 4 22 6 33 3 11 -3 27 -8 35 -10z m-2020
-19 c0 -5 7 -3 15 4 13 11 14 10 10 -3 -4 -8 -15 -17 -26 -20 -10 -3 -17 -1
-13 4 3 5 1 9 -5 9 -5 0 -11 -6 -14 -12 -3 -10 -8 -10 -21 1 -15 12 -17 12
-14 0 2 -8 -4 -13 -14 -13 -10 1 -15 -2 -13 -6 9 -14 -86 -24 -107 -11 -10 6
-27 11 -38 11 -11 0 -20 5 -20 10 0 6 17 10 38 10 20 1 48 7 61 14 26 14 161
16 161 2z m1500 -16 c0 -6 -11 -8 -27 -4 -40 10 -41 14 -5 14 18 0 32 -5 32
-10z m617 -12 c7 -5 17 -7 23 -3 5 3 10 1 10 -4 0 -6 -5 -11 -10 -11 -6 0 -24
-13 -40 -30 -33 -34 -40 -36 -40 -14 0 8 4 13 8 10 5 -3 18 5 30 19 17 20 18
24 5 29 -8 3 -24 6 -34 6 -11 0 -18 4 -15 9 7 10 44 3 63 -11z m-2167 -16 c-8
-3 -18 -10 -22 -16 -4 -6 -10 -7 -14 -3 -10 10 28 37 40 29 6 -3 3 -8 -4 -10z
m-172 -9 c-10 -2 -26 -2 -35 0 -10 3 -2 5 17 5 19 0 27 -2 18 -5z m812 -33
c404 -14 399 -14 394 -22 -3 -5 -11 -8 -17 -8 -7 0 -20 -9 -29 -19 -9 -11 -59
-51 -110 -90 l-94 -70 -419 9 c-231 5 -469 10 -530 11 -60 1 -125 4 -143 7
-33 4 -32 5 60 59 51 30 100 58 108 61 8 3 33 18 55 33 22 15 49 29 60 32 35
8 381 7 665 -3z m1583 -37 c-7 -2 -21 -2 -30 0 -10 3 -4 5 12 5 17 0 24 -2 18
-5z m-93 -38 c0 -2 -10 -9 -22 -15 -22 -11 -22 -10 -4 4 21 17 26 19 26 11z
m-40 -39 c0 -2 -7 -7 -16 -10 -8 -3 -12 -2 -9 4 6 10 25 14 25 6z m-587 -115
c230 -5 420 -11 423 -14 4 -3 -23 -37 -60 -74 -36 -37 -82 -85 -101 -107 -19
-21 -35 -35 -35 -30 0 5 -4 4 -8 -3 -7 -11 -485 -6 -1030 12 l-202 7 102 74
c57 41 125 92 153 113 l49 38 146 -4 c80 -2 333 -8 563 -12z"/>
<path d="M4500 8110 c0 -5 5 -10 10 -10 6 0 10 5 10 10 0 6 -4 10 -10 10 -5 0
-10 -4 -10 -10z"/>
<path d="M3499 7474 c-12 -14 -11 -16 5 -13 11 2 21 10 24 17 5 17 -13 15 -29
-4z"/>
<path d="M3818 7473 c7 -3 16 -2 19 1 4 3 -2 6 -13 5 -11 0 -14 -3 -6 -6z"/>
<path d="M4245 7430 c-8 -13 4 -99 17 -124 8 -15 12 -16 19 -5 13 21 11 62 -6
103 -16 38 -20 42 -30 26z"/>
<path d="M4191 7414 c0 -11 3 -14 6 -6 3 7 2 16 -1 19 -3 4 -6 -2 -5 -13z"/>
<path d="M3940 7410 c0 -5 5 -10 11 -10 5 0 7 5 4 10 -3 6 -8 10 -11 10 -2 0
-4 -4 -4 -10z"/>
<path d="M4751 6274 c0 -11 3 -14 6 -6 3 7 2 16 -1 19 -3 4 -6 -2 -5 -13z"/>
<path d="M4790 6217 c0 -18 92 -136 132 -171 40 -34 78 -47 78 -27 0 5 -20 25
-44 45 -24 20 -72 64 -105 98 -34 35 -61 59 -61 55z"/>
<path d="M4805 5950 c-4 -6 5 -10 19 -10 14 0 26 5 26 10 0 6 -9 10 -19 10
-11 0 -23 -4 -26 -10z"/>
<path d="M5058 5701 c-45 -45 -58 -65 -58 -88 0 -30 -26 -63 -48 -63 -14 0
-16 -16 -4 -24 8 -5 52 40 147 147 39 44 51 77 30 83 -5 2 -36 -23 -67 -55z"/>
<path d="M4877 5248 c-7 -25 -3 -33 12 -23 13 8 15 45 2 45 -5 0 -11 -10 -14
-22z"/>
<path d="M4745 7120 c-9 -15 4 -30 26 -30 12 0 19 7 19 20 0 21 -33 29 -45 10z"/>
<path d="M6870 6300 c0 -5 5 -10 11 -10 5 0 7 5 4 10 -3 6 -8 10 -11 10 -2 0
-4 -4 -4 -10z"/>
<path d="M6826 6251 c-4 -6 -2 -11 3 -11 6 0 11 -11 11 -24 0 -14 4 -27 8 -30
12 -7 8 36 -4 58 -8 12 -14 15 -18 7z"/>
<path d="M9331 3746 c-8 -10 -9 -16 -1 -21 5 -3 13 1 16 10 9 22 -1 29 -15 11z"/>
<path d="M8738 3483 c6 -2 18 -2 25 0 6 3 1 5 -13 5 -14 0 -19 -2 -12 -5z"/>
<path d="M2968 1043 c6 -2 18 -2 25 0 6 3 1 5 -13 5 -14 0 -19 -2 -12 -5z"/>
<path d="M3165 565 c84 -27 132 -39 124 -31 -7 8 -170 56 -184 55 -5 -1 22
-11 60 -24z"/>
<path d="M3160 495 c14 -8 30 -14 35 -14 6 0 -1 6 -15 14 -14 8 -29 14 -35 14
-5 0 1 -6 15 -14z"/>
<path d="M3227 479 c7 -7 15 -10 18 -7 3 3 -2 9 -12 12 -14 6 -15 5 -6 -5z"/>
<path d="M3228 403 c7 -3 16 -2 19 1 4 3 -2 6 -13 5 -11 0 -14 -3 -6 -6z"/>
<path d="M2018 1306 c-17 -23 -16 -24 2 -29 17 -4 20 0 20 24 0 35 0 35 -22 5z"/>
<path d="M8625 2770 c-3 -5 -1 -10 4 -10 6 0 11 5 11 10 0 6 -2 10 -4 10 -3 0
-8 -4 -11 -10z"/>
<path d="M7987 2460 c6 -7 49 -14 100 -16 99 -4 71 9 -46 21 -51 5 -63 4 -54
-5z"/>
<path d="M8235 2430 c22 -5 70 -11 105 -14 79 -6 141 -14 200 -27 48 -9 110
-16 230 -24 l75 -5 -50 15 c-27 8 -95 17 -150 20 -55 3 -122 9 -150 14 -78 16
-216 31 -260 30 l-40 -1 40 -8z"/>
<path d="M8935 2350 c28 -12 65 -12 65 0 0 6 -19 10 -42 9 -33 0 -38 -2 -23
-9z"/>
<path d="M9075 2336 c33 -8 78 -14 100 -14 39 1 38 1 -10 8 -27 4 -72 10 -100
14 -49 6 -49 6 10 -8z"/>
<path d="M9260 2318 c6 -6 217 -34 320 -43 36 -3 101 -10 145 -16 133 -17 192
-20 170 -10 -11 5 -104 16 -205 26 -102 9 -198 20 -215 25 -34 10 -223 25
-215 18z"/>
<path d="M10008 2225 c59 -14 240 -31 231 -21 -8 8 -213 36 -254 35 -23 -1
-18 -4 23 -14z"/>
<path d="M10315 2191 c10 -8 51 -14 210 -26 92 -8 65 10 -30 20 -138 14 -190
16 -180 6z"/>
<path d="M10648 2153 c7 -3 16 -2 19 1 4 3 -2 6 -13 5 -11 0 -14 -3 -6 -6z"/>
<path d="M10688 2153 c6 -2 18 -2 25 0 6 3 1 5 -13 5 -14 0 -19 -2 -12 -5z"/>
<path d="M10726 2142 c-2 -4 13 -9 35 -9 21 -1 39 2 39 8 0 11 -67 12 -74 1z"/>
<path d="M8768 1953 c7 -3 16 -2 19 1 4 3 -2 6 -13 5 -11 0 -14 -3 -6 -6z"/>
<path d="M9108 1903 c6 -2 18 -2 25 0 6 3 1 5 -13 5 -14 0 -19 -2 -12 -5z"/>
<path d="M9720 1826 c0 -2 7 -7 16 -10 8 -3 12 -2 9 4 -6 10 -25 14 -25 6z"/>
</g>
</svg>
